<svg width="34" height="88" viewBox="0 0 34 88" fill="none" xmlns="http://www.w3.org/2000/svg">
<path d="M34 17C34 26.3888 26.3888 34 17 34C7.61116 34 0 26.3888 0 17C0 7.61116 7.61116 0 17 0C26.3888 0 34 7.61116 34 17Z" fill="#388AF3"/>
<path fill-rule="evenodd" clip-rule="evenodd" d="M21.9414 10.0283L7.25081 15.6496C6.24393 16.0402 6.2617 16.5934 7.07813 16.8504L10.839 18.0148L19.5633 12.5636C19.9683 12.2964 20.3441 12.4476 20.0369 12.716L12.9772 19.0455L12.7068 22.8926C13.1004 22.8926 13.2718 22.7225 13.475 22.5209L15.3122 20.7643L19.1214 23.5504C19.8159 23.941 20.3124 23.7394 20.4978 22.9102L22.9991 11.2153L22.9978 11.2165C23.2188 10.1933 22.6233 9.7838 21.9414 10.0283Z" fill="white"/>
<circle cx="17" cy="71" r="17" fill="#7BE495"/>
<path fill-rule="evenodd" clip-rule="evenodd" d="M15.4381 66.7497C15.2881 66.4162 15.1302 66.4095 14.9875 66.4037C14.8707 66.3987 14.7371 66.399 14.6037 66.399C14.4701 66.399 14.2532 66.4492 14.0697 66.6496C13.8861 66.85 13.3687 67.3344 13.3687 68.3197C13.3687 69.3051 14.0864 70.2572 14.1864 70.391C14.2865 70.5245 15.5719 72.6111 17.6074 73.4138C19.2991 74.0809 19.6434 73.9482 20.0106 73.9148C20.3778 73.8814 21.1954 73.4305 21.3623 72.9628C21.5293 72.4952 21.5293 72.0945 21.4792 72.0107C21.4291 71.9272 21.2956 71.8772 21.0953 71.777C20.895 71.6769 19.9104 71.1923 19.7268 71.1256C19.5432 71.0588 19.4097 71.0254 19.2762 71.2259C19.1427 71.4262 18.7591 71.8772 18.6422 72.0107C18.5254 72.1445 18.4086 72.1612 18.2083 72.0611C18.008 71.9606 17.363 71.7494 16.5978 71.0671C16.0025 70.5363 15.6005 69.8808 15.4837 69.6803C15.3669 69.48 15.4712 69.3715 15.5716 69.2717C15.6616 69.182 15.7719 69.0379 15.8721 68.921C15.972 68.804 16.0054 68.7206 16.0722 68.5871C16.1389 68.4533 16.1055 68.3364 16.0555 68.2362C16.0054 68.1361 15.6162 67.1457 15.4381 66.7497Z" fill="white"/>
<path d="M23.1108 64.4372C21.5975 62.9228 19.5852 62.0884 17.4413 62.0874C13.0233 62.0874 9.42795 65.6816 9.42617 70.0993C9.42565 71.5115 9.79463 72.89 10.496 74.1051L9.35889 78.2569L13.6078 77.1428C14.7784 77.7812 16.0965 78.1177 17.4378 78.1182H17.4412H17.4413C21.8585 78.1182 25.4543 74.5234 25.4562 70.1058C25.457 67.9648 24.624 65.9517 23.1108 64.4372ZM17.4413 76.765H17.4387C16.2431 76.7643 15.0706 76.4434 14.048 75.8365L13.8046 75.6923L11.2832 76.3533L11.9564 73.8959L11.7978 73.644C11.1309 72.5836 10.7789 71.3582 10.7794 70.0999C10.7808 66.428 13.7691 63.4407 17.4438 63.4407C19.2232 63.4415 20.8957 64.1351 22.1535 65.3938C23.4113 66.6525 24.1034 68.3257 24.1029 70.1053C24.1013 73.7773 21.1129 76.765 17.4413 76.765Z" fill="white"/>
</svg>
